# xmcd CD database file
#
# Track frame offsets:
#	150
#	16137
#	35262
#	57762
#	76188
#	95538
#	115713
#	145654
#
# Disc length: 3859 seconds
#
# Revision: 0
# Processed by: cddbd v1.5.2PL0 Copyright (c) Steve Scherf et al.
# Submitted via: CDex 1.70beta2
#
DISCID=530f1108
DTITLE=Sweet Vacation - More the Vacation!!
DYEAR=2008
DGENRE=Electric pop
TTITLE0=Looking For The Future
TTITLE1=Speed of Sound
TTITLE2=Sexy Girl
TTITLE3=Girls And Boys
TTITLE4=遊びに行こうよ
TTITLE5=We Love The EARTH
TTITLE6=World is So Grooving
TTITLE7=Data
EXTD=YEAR: 2008
EXTT0=
EXTT1=
EXTT2=
EXTT3=
EXTT4=
EXTT5=
EXTT6=
EXTT7=
PLAYORDER=
